<svg xmlns="http://www.w3.org/2000/svg" width="440" height="214" viewBox="0 0 440 214" role="img" aria-labelledby="t d">
<title id="t">AetherMail — Agents · RAG · Streaming data</title><desc id="d">A stateful LangGraph agent that reads, reasons over and acts on email, backed by a Kafka → Spark pipeline. Stack: LangGraph, Gemini, Qdrant, Ollama. 768-d embeddings · 6 agent tools.</desc>
<style>
@keyframes pulse{0%,100%{opacity:1}50%{opacity:.35}}
@keyframes shimmer{0%,100%{opacity:.15}50%{opacity:.9}}
@keyframes dash{to{stroke-dashoffset:-24}}
.pulse{animation:pulse 2.4s ease-in-out infinite}
.shimmer{animation:shimmer 5s ease-in-out infinite}
.shimmer2{animation:shimmer 5s ease-in-out 2.5s infinite}
.flow{stroke-dasharray:4 8;animation:dash 2.2s linear infinite}
@media (prefers-reduced-motion: reduce){*{animation:none!important}}</style>
<defs><path id="displayB56" d="M81 4q-31 0-50-18q-18-17-18-51l0-44q0-34 18-52q19-17 50-17q31 0 50 17q19 18 19 52l0 44q0 34-19 51q-19 18-50 18M81-25q19 0 28-10q9-10 9-29l0-47q0-19-10-29q-10-10-27-10q-17 0-27 10q-9 11-9 29l0 47q0 19 9 29q9 10 27 10"/><path id="displayB58" d="M138 0l-127 0l0-21q0-18 6-30q6-12 17-20q11-8 28-13l17-5q9-3 15-8q6-4 10-10q3-7 3-15l0-1q0-12-8-20q-9-7-24-7q-14 0-23 8q-9 8-9 23l0 4l-32 0l0-4q0-19 9-32q8-13 23-20q14-7 32-7q18 0 33 6q14 7 23 20q8 12 8 29l0 2q0 17-7 29q-7 11-18 19q-12 7-27 12l-16 5q-11 3-17 7q-6 4-8 8q-3 5-3 12l0 1l95 0l0 28"/><path id="mono1" d="M36 0l-23 0l47-182l30 0l48 182l-23 0l-12-48l-55 0l-12 48M66-124l-14 57l46 0l-14-57q-4-16-6-26q-2-11-3-14q0 3-3 14q-2 10-6 26"/><path id="mono21" d="M76 3q-16 0-29-7q-12-6-18-18q-7-12-7-28l0-82q0-17 7-29q6-11 18-18q13-6 29-6q17 0 29 6q12 7 18 19q7 11 7 28l-23 0q0-16-8-24q-8-9-23-9q-15 0-23 9q-8 8-8 23l0 83q0 16 8 24q8 9 23 9q15 0 23-9q8-8 8-24l0-22l-37 0l0-21l60 0l0 43q0 16-7 28q-6 12-18 18q-12 7-29 7"/><path id="mono15" d="M130 0l-105 0l0-182l105 0l0 20l-83 0l0 57l74 0l0 20l-74 0l0 65l83 0l0 20"/><path id="mono32" d="M44 0l-21 0l0-182l30 0l55 156q0-6-1-16q0-9-1-19q0-10 0-19l0-102l22 0l0 182l-30 0l-56-156q1 6 1 15q1 9 1 19q0 10 0 20l0 102"/><path id="mono47" d="M86 0l-22 0l0-162l-50 0l0-21l122 0l0 21l-50 0l0 162"/><path id="mono46" d="M76 3q-18 0-31-6q-13-6-20-18q-7-11-7-26l23 0q0 13 9 21q9 8 26 8q16 0 25-7q9-8 9-22q0-11-6-19q-6-8-17-12l-25-7q-19-6-29-20q-10-13-10-31q0-15 7-26q6-11 18-17q12-6 29-6q24 0 38 13q15 14 15 36l-23 0q0-14-8-21q-8-8-23-8q-14 0-22 7q-8 7-8 20q0 11 6 19q6 8 17 12l25 8q18 6 28 19q10 14 10 33q0 15-7 26q-7 11-20 17q-12 7-29 7"/><path id="mono149" d="M75-65q-9 0-15-5q-6-6-6-15q0-10 6-16q6-5 15-5q10 0 15 5q6 6 6 16q0 9-6 15q-5 5-15 5"/><path id="mono45" d="M46 0l-23 0l0-182l57 0q16 0 28 6q12 7 19 19q7 11 7 27q0 19-10 32q-9 13-26 18l38 80l-26 0l-35-77l-29 0l0 77M46-162l0 64l34 0q14 0 22-9q9-8 9-23q0-15-9-23q-8-9-22-9l-34 0"/><path id="mono31" d="M41 0l-22 0l0-182l30 0l19 59q2 8 5 15q2 8 3 13q1-5 3-13q2-7 5-16l18-58l29 0l0 182l-22 0l0-66q0-11 1-25q1-14 2-29q1-14 2-28q2-13 3-23l-30 91l-23 0l-30-91q1 10 2 22q2 13 3 28q1 14 1 28q1 15 1 27l0 66"/><path id="mono23" d="M124 0l-98 0l0-20l38 0l0-142l-38 0l0-20l98 0l0 20l-37 0l0 142l37 0l0 20"/><path id="mono13" d="M70 0l-47 0l0-182l47 0q18 0 31 6q13 7 20 19q7 13 7 29l0 73q0 17-7 29q-7 13-20 19q-13 7-31 7M46-162l0 142l24 0q17 0 26-9q10-9 10-26l0-73q0-16-10-25q-9-9-26-9l-24 0"/><path id="displayM4" d="M33 0l-28 0l50-175l48 0l50 175l-28 0l-12-41l-68 0l-12 41M77-158l-25 92l55 0l-26-92l-4 0"/><path id="displayM34" d="M76 4q-19 0-33-8q-14-8-22-23q-8-14-8-33l0-3q0-19 8-34q8-14 21-22q14-8 33-8q17 0 31 8q13 8 21 22q7 14 7 33l0 10l-95 0q1 16 11 25q11 10 26 10q15 0 22-6q7-7 11-15l22 11q-4 7-11 14q-6 8-17 13q-11 6-27 6M40-74l68 0q-1-14-10-22q-9-8-24-8q-14 0-23 8q-9 8-11 22"/><path id="displayM49" d="M99 0l-34 0q-11 0-18-7q-6-6-6-18l0-76l-34 0l0-22l34 0l0-41l26 0l0 41l36 0l0 22l-36 0l0 72q0 7 7 7l25 0l0 22"/><path id="displayM37" d="M45 0l-26 0l0-175l26 0l0 69l4 0q2-4 7-9q5-4 12-7q8-3 20-3q14 0 24 6q11 6 18 18q6 11 6 27l0 74l-26 0l0-72q0-16-8-24q-8-7-22-7q-16 0-26 10q-9 11-9 31l0 62"/><path id="displayM47" d="M45 0l-26 0l0-123l25 0l0 14l4 0q3-7 10-11q7-4 16-4l15 0l0 24l-16 0q-12 0-20 6q-8 7-8 22l0 72"/><path id="displayM16" d="M45 0l-27 0l0-175l51 0l38 157l4 0l39-157l50 0l0 175l-26 0l0-156l-4 0l-38 156l-45 0l-38-156l-4 0l0 156"/><path id="displayM30" d="M57 4q-13 0-23-5q-11-4-17-13q-6-9-6-21q0-13 6-22q6-8 17-12q11-4 24-4l38 0l0-8q0-11-7-18q-6-6-20-6q-13 0-20 6q-7 6-9 16l-24-7q3-10 9-19q7-8 18-13q11-5 26-5q24 0 38 13q14 12 14 34l0 51q0 8 7 8l10 0l0 21l-19 0q-9 0-14-4q-6-5-6-13l-3 0q-2 3-6 8q-4 5-12 9q-8 4-21 4M61-18q16 0 25-9q10-8 10-24l0-2l-36 0q-11 0-17 4q-6 4-6 13q0 8 6 13q7 5 18 5"/><path id="displayM38" d="M45 0l-26 0l0-123l26 0l0 123M32-140q-7 0-13-5q-5-5-5-12q0-8 5-13q6-5 13-5q8 0 13 5q5 5 5 13q0 7-5 12q-5 5-13 5"/><path id="displayM41" d="M45 0l-26 0l0-175l26 0l0 175"/><path id="displayM48" d="M70 4q-24 0-39-11q-16-10-19-32l24-5q2 10 6 16q5 6 12 8q7 3 16 3q12 0 18-5q7-5 7-12q0-8-6-11q-6-4-19-6l-8-1q-13-3-23-7q-10-4-16-12q-6-7-6-19q0-17 13-27q13-10 34-10q21 0 34 10q14 9 18 25l-24 7q-2-11-10-16q-7-5-18-5q-10 0-16 4q-6 4-6 11q0 8 6 11q6 4 16 5l8 2q14 2 25 6q11 4 17 12q6 7 6 20q0 18-13 28q-14 11-37 11"/><path id="displayM35" d="M67 0l-26 0l0-101l-34 0l0-22l34 0l0-27q0-11 7-18q7-7 18-7l32 0l0 22l-24 0q-7 0-7 7l0 23l36 0l0 22l-36 0l0 101"/><path id="displayM50" d="M66 2q-14 0-25-6q-11-6-17-18q-6-11-6-27l0-74l26 0l0 72q0 16 8 24q8 7 22 7q16 0 25-10q10-11 10-31l0-62l26 0l0 123l-26 0l0-18l-4 0q-3 7-12 14q-9 6-27 6"/><path id="displayM15" d="M130 0l-112 0l0-175l27 0l0 151l85 0l0 24"/><path id="displayM43" d="M45 0l-26 0l0-123l25 0l0 18l4 0q4-7 13-14q9-6 27-6q14 0 24 6q11 6 18 18q6 11 6 27l0 74l-26 0l0-72q0-16-8-24q-8-7-22-7q-16 0-26 10q-9 11-9 31l0 62"/><path id="displayM36" d="M13-61l0-4q0-19 8-33q8-14 21-21q13-8 28-8q18 0 28 7q10 7 14 15l4 0l0-18l25 0l0 148q0 12-7 18q-6 7-18 7l-83 0l0-22l75 0q8 0 8-8l0-39l-4 0q-3 4-8 9q-5 5-13 8q-8 3-21 3q-15 0-28-8q-13-7-21-21q-8-14-8-33M77-22q17 0 28-10q11-11 11-30l0-2q0-19-11-30q-11-10-28-10q-16 0-27 10q-11 11-11 30l0 2q0 19 11 30q11 10 27 10"/><path id="displayM10" d="M79 4q-19 0-33-9q-15-8-24-23q-8-16-8-39l0-41q0-34 19-52q18-18 50-18q32 0 49 17q17 17 17 46l0 1l-27 0l0-2q0-11-4-20q-4-8-13-13q-8-5-22-5q-20 0-31 12q-11 12-11 34l0 42q0 21 11 33q11 13 32 13q20 0 29-11q9-11 9-29l0-3l-47 0l0-23l74 0l0 86l-25 0l0-18l-4 0q-2 5-7 10q-4 5-12 8q-8 4-22 4"/><path id="displayM45" d="M45 50l-26 0l0-173l25 0l0 18l4 0q5-9 15-15q9-7 27-7q16 0 29 8q13 7 20 21q8 15 8 35l0 3q0 20-7 34q-8 15-21 22q-13 8-29 8q-12 0-20-3q-8-3-13-8q-5-5-8-10l-4 0l0 67M83-19q17 0 28-11q10-10 10-30l0-3q0-19-11-30q-10-11-27-11q-17 0-28 11q-10 11-10 30l0 3q0 20 10 30q11 11 28 11"/><path id="displayM33" d="M70 4q-15 0-28-8q-13-7-21-22q-8-14-8-34l0-3q0-20 8-34q8-15 21-22q13-8 28-8q12 0 20 3q8 3 14 8q5 5 8 10l4 0l0-69l25 0l0 175l-25 0l0-17l-4 0q-5 8-14 14q-10 7-28 7M77-19q17 0 28-11q11-10 11-30l0-3q0-19-11-30q-11-11-28-11q-16 0-27 11q-11 11-11 30l0 3q0 20 11 30q11 11 27 11"/><path id="displayM85" d="M30 34l-11 0l0-15l9 0q10 0 10-10l0-8l-4 0q-8 0-14-5q-6-5-6-13q0-9 6-15q6-5 14-5q9 0 15 6q5 5 5 14l0 26q0 25-24 25"/><path id="displayM44" d="M77 4q-19 0-33-8q-14-8-23-22q-8-14-8-34l0-3q0-20 8-34q9-14 23-22q14-8 33-8q18 0 33 8q14 8 23 22q8 14 8 34l0 3q0 20-8 34q-9 14-23 22q-15 8-33 8M77-19q17 0 27-11q11-11 11-30l0-3q0-19-10-30q-11-11-28-11q-17 0-28 11q-10 11-10 30l0 3q0 19 10 30q11 11 28 11"/><path id="displayM51" d="M89 0l-41 0l-42-123l27 0l33 104l4 0l33-104l27 0l-41 123"/><path id="displayM32" d="M76 4q-17 0-32-8q-14-7-23-22q-8-14-8-34l0-3q0-20 8-34q9-14 23-22q15-8 32-8q18 0 31 7q12 6 20 17q7 11 10 24l-25 5q-2-8-6-15q-4-7-11-11q-7-4-18-4q-11 0-20 5q-8 5-13 14q-5 9-5 22l0 3q0 13 5 22q5 9 13 14q9 5 20 5q16 0 25-9q8-8 10-21l25 6q-3 12-10 23q-8 11-20 17q-13 7-31 7"/><path id="displayM42" d="M45 0l-26 0l0-123l25 0l0 14l4 0q4-6 12-11q7-5 21-5q13 0 22 5q8 6 12 15l4 0q5-9 13-14q8-6 23-6q12 0 21 5q9 5 15 14q5 10 5 24l0 82l-25 0l0-80q0-11-7-17q-6-6-17-6q-12 0-19 7q-7 8-7 23l0 73l-26 0l0-80q0-11-6-17q-6-6-18-6q-12 0-19 7q-7 8-7 23l0 73"/><path id="displayM31" d="M90 4q-18 0-27-7q-10-6-15-14l-4 0l0 17l-25 0l0-175l26 0l0 69l4 0q3-5 8-10q5-5 13-8q8-3 20-3q16 0 29 8q13 7 21 22q7 14 7 34l0 3q0 20-8 34q-7 15-20 22q-13 8-29 8M83-19q17 0 27-11q11-10 11-30l0-3q0-19-10-30q-11-11-28-11q-17 0-28 11q-10 11-10 30l0 3q0 20 10 30q11 11 28 11"/><path id="displayM40" d="M45 0l-26 0l0-175l26 0l0 100l4 0l48-48l35 0l-63 60l65 63l-34 0l-51-51l-4 0l0 51"/><path id="displayM54" d="M110 50l-77 0l0-22l69 0q7 0 7-8l0-38l-4 0q-2 5-7 10q-4 4-12 7q-8 3-20 3q-14 0-25-6q-11-6-17-18q-6-11-6-27l0-74l26 0l0 72q0 16 8 24q8 7 22 7q16 0 25-10q10-11 10-31l0-62l26 0l0 148q0 12-7 18q-7 7-18 7"/><path id="displayM14" d="M45 0l-27 0l0-175l27 0l0 73l4 0l66-73l35 0l-79 86l82 89l-37 0l-67-74l-4 0l0 74"/><path id="displayM22" d="M78 4q-20 0-35-7q-15-7-24-21q-9-14-9-33l0-6l27 0l0 6q0 18 11 28q11 9 30 9q19 0 28-8q10-8 10-20q0-9-5-14q-4-5-13-8q-8-3-19-6l-10-2q-16-4-29-10q-12-6-19-16q-7-10-7-25q0-15 8-26q8-11 21-17q14-6 32-6q18 0 32 6q15 6 23 18q8 13 8 31l0 9l-26 0l0-9q0-11-5-18q-5-7-13-10q-8-4-19-4q-16 0-25 7q-9 7-9 18q0 8 4 13q4 6 11 9q8 3 19 6l9 2q17 4 30 9q13 6 21 16q7 10 7 26q0 16-8 28q-7 11-22 18q-14 7-34 7"/><path id="displayM84" d="M35 4q-9 0-15-6q-6-6-6-15q0-9 6-15q6-5 15-5q8 0 14 6q6 5 6 14q0 9-6 15q-6 6-14 6"/><path id="mono30" d="M134 0l-105 0l0-182l22 0l0 162l83 0l0 20"/><path id="mono59" d="M63 3q-22 0-34-12q-13-11-13-30q0-19 13-30q12-11 34-11l42 0l0-14q0-12-8-19q-7-7-21-7q-12 0-21 5q-8 5-9 14l-23 0q3-18 17-28q15-11 36-11q24 0 38 12q14 13 14 34l0 94l-22 0l0-26l-1 0q-1 12-11 20q-12 9-31 9M69-15q16 0 26-8q10-8 10-21l0-19l-42 0q-11 0-18 6q-6 6-6 17q0 12 8 18q8 7 22 7"/><path id="mono92" d="M46 0l-23 0l0-137l23 0l0 26q1-13 9-20q10-9 27-9q21 0 33 13q13 13 13 35l0 92l-23 0l0-90q0-15-8-23q-8-7-21-7q-14 0-22 8q-8 9-8 25l0 87"/><path id="mono78" d="M84 45l-44 0l0-20l44 0q11 0 15-5q5-5 5-15l0-17l1-25l-1 0q-1 12-9 20q-10 8-27 8q-21 0-34-14q-12-13-12-37l0-29q0-23 12-37q13-14 34-14q17 0 27 9q8 8 9 20l1 0l0-26l22 0l0 142q0 19-12 29q-11 11-31 11M75-28q14 0 22-9q8-9 8-24l0-26q0-16-8-25q-8-8-22-8q-15 0-23 8q-7 9-7 25l0 26q0 16 7 24q8 9 23 9"/><path id="mono105" d="M50 0l-22 0l0-137l22 0l0 24q2-9 8-16q9-11 28-11q22 0 35 14q13 13 13 37l0 8l-23 0l0-6q0-17-8-25q-8-9-22-9q-14 0-23 9q-8 9-8 25l0 87"/><path id="mono102" d="M46 45l-23 0l0-182l23 0l0 26q1-12 10-20q10-9 27-9q21 0 33 14q13 13 13 37l0 40q0 16-6 28q-5 11-16 17q-10 7-24 7q-16 0-27-10q-9-7-10-19l-1 0l1 31l0 40M76-17q14 0 22-8q8-9 8-25l0-37q0-16-8-25q-8-8-22-8q-14 0-22 8q-8 9-8 25l0 37q0 16 8 24q8 9 22 9"/><path id="mono79" d="M46 0l-23 0l0-182l23 0l0 71q1-13 9-20q10-9 27-9q21 0 33 13q13 13 13 35l0 92l-23 0l0-90q0-15-8-23q-8-8-21-8q-14 0-22 9q-8 9-8 25l0 87"/><path id="mono72" d="M75 3q-16 0-28-7q-12-6-19-18q-7-12-7-28l0-37q0-16 7-28q7-12 19-18q12-7 28-7q16 0 28 7q13 6 19 18q7 12 7 28l0 24l-86 0l0 13q0 16 9 25q8 9 23 9q13 0 21-5q8-5 10-14l22 0q-2 17-17 27q-14 11-36 11M43-80l64 0l0-7q0-17-8-25q-8-9-24-9q-15 0-23 9q-9 8-9 25l0 7"/><path id="mono91" d="M37 0l-20 0l0-137l19 0l0 16l2 0q1-7 6-12q6-7 16-7q12 0 18 9q3 4 5 10l1 0q1-7 6-12q6-7 16-7q13 0 20 10q8 10 8 26l0 104l-21 0l0-105q0-8-4-13q-3-5-10-5q-7 0-11 5q-4 5-4 13l0 105l-18 0l0-105q0-8-4-13q-4-5-11-5q-7 0-10 5q-4 5-4 13l0 105"/><path id="mono80" d="M139 0l-118 0l0-20l49 0l0-97l-42 0l0-20l65 0l0 117l46 0l0 20M79-162q-8 0-13-4q-5-5-5-12q0-7 5-12q5-4 13-4q8 0 13 4q5 5 5 12q0 7-5 12q-5 4-13 4"/><path id="mono44" d="M132 45l-26 0l-26-43q-1 0-1 0q-2 1-4 1q-17 0-29-7q-12-7-19-19q-7-12-7-28l0-80q0-17 7-29q7-12 19-18q12-7 29-7q17 0 29 7q13 6 19 18q7 12 7 29l0 80q0 17-7 29q-7 13-21 19l30 48M75-17q15 0 24-10q9-9 9-24l0-80q0-16-9-25q-9-9-24-9q-15 0-24 9q-8 9-8 25l0 80q0 15 8 24q9 10 24 10"/><path id="mono70" d="M67 3q-20 0-33-14q-13-14-13-37l0-41q0-23 13-37q12-14 33-14q17 0 27 9q9 8 10 20l1 0l0-31l0-40l22 0l0 182l-22 0l0-26l-1 0q-1 12-10 19q-10 10-27 10M75-17q14 0 22-9q8-8 8-24l0-37q0-16-8-25q-8-8-22-8q-15 0-23 8q-8 9-8 25l0 37q0 16 8 25q8 8 23 8"/><path id="mono108" d="M128 0l-38 0q-18 0-28-9q-9-10-9-27l0-81l-39 0l0-20l39 0l0-39l22 0l0 39l55 0l0 20l-55 0l0 81q0 16 15 16l38 0l0 20"/><path id="mono34" d="M75 3q-16 0-28-7q-12-6-19-18q-6-12-6-28l0-82q0-17 6-29q7-11 19-18q12-6 28-6q17 0 28 6q12 7 19 18q6 12 6 28l0 83q0 16-6 28q-7 12-19 18q-11 7-28 7M75-18q15 0 23-8q8-8 8-24l0-82q0-16-8-24q-8-9-23-9q-14 0-22 9q-8 8-8 24l0 82q0 16 8 24q8 8 22 8"/><path id="mono90" d="M138 0l-44 0q-12 0-21-5q-9-4-14-13q-5-9-5-21l0-123l-46 0l0-20l68 0l0 143q0 9 5 14q5 5 13 5l44 0l0 20"/><path id="displayB63" d="M65 0l-32 0l0-6q0-10 1-17q2-7 7-16l59-103l0-4l-93 0l0-29l126 0l0 38l-62 111q-4 6-5 10q-1 5-1 11l0 5"/><path id="displayB62" d="M78 4q-20 0-35-8q-14-7-22-21q-8-13-8-30l0-60q0-21 8-35q9-14 24-21q15-7 35-7q19 0 33 6q15 7 23 19q8 12 8 29l-33 0q0-10-7-18q-7-8-24-8q-17 0-26 9q-9 9-9 24l0 18l4 0q4-5 13-9q9-5 26-5q15 0 28 7q13 6 21 18q8 13 8 30l0 3q0 18-9 31q-8 13-23 20q-15 8-35 8M79-25q15 0 24-8q10-8 10-22l0-2q0-9-5-16q-4-7-11-11q-8-3-18-3q-11 0-18 3q-8 4-12 11q-4 7-4 16l0 2q0 14 9 22q9 8 25 8"/><path id="displayB64" d="M75 4q-20 0-35-6q-16-6-24-18q-9-11-9-27l0-3q0-12 4-20q5-7 11-12q6-4 12-6l0-5q-6-2-11-6q-6-5-10-12q-3-8-3-18l0-3q0-14 8-24q8-11 23-17q14-5 34-5q20 0 35 5q14 6 22 17q9 10 9 24l0 3q0 10-4 18q-4 7-9 12q-6 4-12 6l0 5q6 2 12 6q7 5 11 12q4 8 4 20l0 3q0 16-9 27q-8 12-24 18q-15 6-35 6M75-25q17 0 27-7q9-6 9-17l0-2q0-11-9-18q-9-6-27-6q-17 0-27 6q-9 7-9 18l0 2q0 11 9 17q10 7 27 7M75-104q16 0 25-6q9-5 9-16l0-2q0-10-9-16q-9-6-25-6q-15 0-24 6q-9 6-9 16l0 2q0 11 8 16q9 6 25 6"/><path id="displayB95" d="M91-49l-74 0l0-29l74 0l0 29"/><path id="displayB33" d="M68 4q-15 0-28-8q-13-7-21-21q-7-15-7-35l0-4q0-20 7-34q8-15 21-22q13-7 28-7q11 0 18 2q8 3 13 7q5 4 7 8l5 0l0-65l31 0l0 175l-31 0l0-15l-4 0q-5 7-14 13q-8 6-25 6M77-24q15 0 24-9q10-10 10-28l0-2q0-18-10-28q-9-9-24-9q-14 0-24 9q-10 10-10 28l0 2q0 18 10 28q10 9 24 9"/><path id="mono67" d="M83 3q-17 0-27-10q-9-7-10-19l0 26l-23 0l0-182l23 0l0 40l-1 31l1 0q1-12 10-20q10-9 27-9q21 0 33 14q13 14 13 37l0 41q0 23-13 37q-12 14-33 14M76-17q14 0 22-8q8-9 8-25l0-37q0-16-8-25q-8-8-22-8q-14 0-22 8q-8 9-8 25l0 37q0 16 8 24q8 9 22 9"/><path id="mono106" d="M81 2l-10 0q-14 0-25-4q-10-5-16-13q-6-8-7-19l22 0q2 8 8 12q7 4 18 4l10 0q14 0 20-5q7-6 7-15q0-8-6-14q-6-5-18-6l-18-3q-20-4-30-13q-10-9-10-27q0-18 12-28q11-10 35-10l9 0q20 0 32 9q12 9 15 25l-23 0q-1-7-7-11q-6-3-17-3l-9 0q-13 0-19 4q-6 5-6 15q0 8 5 12q5 4 16 6l19 3q22 3 32 13q10 9 10 27q0 19-12 30q-12 11-37 11"/><path id="mono129" d="M75 3q-17 0-30-8q-13-7-21-20q-7-14-7-31q0-14 4-27q4-13 12-26l45-73l25 0l-51 83l1 0q4-7 13-10q8-4 18-4q15 0 26 7q11 7 17 20q6 12 6 30q0 17-7 31q-7 13-20 20q-13 8-31 8M75-17q16 0 26-11q10-11 10-28q0-18-10-28q-10-11-26-11q-16 0-26 11q-9 10-9 28q0 17 9 28q10 11 26 11"/><path id="mono94" d="M75 2q-16 0-28-6q-12-6-19-18q-7-12-7-28l0-37q0-16 7-28q7-12 19-18q12-6 28-6q17 0 29 6q12 6 18 18q7 12 7 28l0 37q0 16-7 28q-6 12-18 18q-12 6-29 6M75-18q15 0 23-8q8-8 8-24l0-37q0-16-8-24q-8-8-23-8q-14 0-23 8q-8 8-8 24l0 37q0 16 8 24q9 8 23 8"/></defs>
<rect x="0.5" y="0.5" width="439" height="213" rx="14" fill="#0e1117" stroke="#1c2230"/>
<g fill="#1c2230" opacity="0.8" transform="translate(267 112) scale(0.512)"><use href="#displayB56" x="0"/><use href="#displayB58" x="162"/></g>
<path d="M370,164 C400,164 410,186 432,190" fill="none" stroke="#3de0ff" stroke-opacity="0.55" stroke-width="1"/>
<path d="M370,172 C400,172 410,189 432,193" fill="none" stroke="#3de0ff" stroke-opacity="0.4" stroke-width="1"/>
<path d="M370,180 C400,180 410,192 432,196" fill="none" stroke="#3de0ff" stroke-opacity="0.25000000000000006" stroke-width="1"/>
<g fill="#c6ff3d" transform="translate(22 32) scale(0.04)"><use href="#mono1" x="0"/><use href="#mono21" x="180"/><use href="#mono15" x="360"/><use href="#mono32" x="540"/><use href="#mono47" x="720"/><use href="#mono46" x="900"/><use href="#mono149" x="1260"/><use href="#mono45" x="1620"/><use href="#mono1" x="1800"/><use href="#mono21" x="1980"/><use href="#mono149" x="2340"/><use href="#mono46" x="2700"/><use href="#mono47" x="2880"/><use href="#mono45" x="3060"/><use href="#mono15" x="3240"/><use href="#mono1" x="3420"/><use href="#mono31" x="3600"/><use href="#mono23" x="3780"/><use href="#mono32" x="3960"/><use href="#mono21" x="4140"/><use href="#mono13" x="4500"/><use href="#mono1" x="4680"/><use href="#mono47" x="4860"/><use href="#mono1" x="5040"/></g>
<g fill="#e8ecf3" transform="translate(22 66) scale(0.1)"><use href="#displayM4" x="0"/><use href="#displayM34" x="158"/><use href="#displayM49" x="300"/><use href="#displayM37" x="414"/><use href="#displayM34" x="568"/><use href="#displayM47" x="714"/><use href="#displayM16" x="811"/><use href="#displayM30" x="1029"/><use href="#displayM38" x="1173"/><use href="#displayM41" x="1237"/></g>
<g fill="#8b93a7" transform="translate(22 92) scale(0.052)"><use href="#displayM4" x="0"/><use href="#displayM48" x="219"/><use href="#displayM49" x="347"/><use href="#displayM30" x="461"/><use href="#displayM49" x="597"/><use href="#displayM34" x="707"/><use href="#displayM35" x="849"/><use href="#displayM50" x="958"/><use href="#displayM41" x="1112"/><use href="#displayM15" x="1240"/><use href="#displayM30" x="1376"/><use href="#displayM43" x="1520"/><use href="#displayM36" x="1674"/><use href="#displayM10" x="1834"/><use href="#displayM47" x="1999"/><use href="#displayM30" x="2092"/><use href="#displayM45" x="2236"/><use href="#displayM37" x="2397"/><use href="#displayM30" x="2614"/><use href="#displayM36" x="2755"/><use href="#displayM34" x="2915"/><use href="#displayM43" x="3061"/><use href="#displayM49" x="3212"/><use href="#displayM49" x="3390"/><use href="#displayM37" x="3504"/><use href="#displayM30" x="3658"/><use href="#displayM49" x="3794"/><use href="#displayM47" x="3972"/><use href="#displayM34" x="4064"/><use href="#displayM30" x="4210"/><use href="#displayM33" x="4352"/><use href="#displayM48" x="4512"/><use href="#displayM85" x="4643"/><use href="#displayM47" x="4767"/><use href="#displayM34" x="4860"/><use href="#displayM30" x="5006"/><use href="#displayM48" x="5149"/><use href="#displayM44" x="5280"/><use href="#displayM43" x="5434"/><use href="#displayM48" x="5588"/><use href="#displayM44" x="5783"/><use href="#displayM51" x="5932"/><use href="#displayM34" x="6064"/><use href="#displayM47" x="6210"/></g>
<g fill="#8b93a7" transform="translate(22 110) scale(0.052)"><use href="#displayM30" x="0"/><use href="#displayM43" x="144"/><use href="#displayM33" x="298"/><use href="#displayM30" x="522"/><use href="#displayM32" x="663"/><use href="#displayM49" x="807"/><use href="#displayM48" x="921"/><use href="#displayM44" x="1116"/><use href="#displayM43" x="1270"/><use href="#displayM34" x="1488"/><use href="#displayM42" x="1634"/><use href="#displayM30" x="1848"/><use href="#displayM38" x="1992"/><use href="#displayM41" x="2056"/><use href="#displayM85" x="2120"/><use href="#displayM31" x="2244"/><use href="#displayM30" x="2405"/><use href="#displayM32" x="2546"/><use href="#displayM40" x="2694"/><use href="#displayM34" x="2825"/><use href="#displayM33" x="2971"/><use href="#displayM31" x="3195"/><use href="#displayM54" x="3355"/><use href="#displayM30" x="3572"/><use href="#displayM14" x="3780"/><use href="#displayM30" x="3935"/><use href="#displayM35" x="4070"/><use href="#displayM40" x="4180"/><use href="#displayM30" x="4315"/><use href="#displayM49" x="4523"/><use href="#displayM44" x="4633"/><use href="#displayM22" x="4851"/><use href="#displayM45" x="5003"/><use href="#displayM30" x="5163"/><use href="#displayM47" x="5307"/><use href="#displayM40" x="5404"/></g>
<g fill="#8b93a7" transform="translate(22 128) scale(0.052)"><use href="#displayM45" x="0"/><use href="#displayM38" x="160"/><use href="#displayM45" x="224"/><use href="#displayM34" x="385"/><use href="#displayM41" x="531"/><use href="#displayM38" x="595"/><use href="#displayM43" x="659"/><use href="#displayM34" x="812"/><use href="#displayM84" x="957"/></g>
<rect x="22" y="156" width="72" height="22" rx="11" fill="none" stroke="#1c2230"/>
<g fill="#8b93a7" transform="translate(31 171) scale(0.04)"><use href="#mono30" x="0"/><use href="#mono59" x="150"/><use href="#mono92" x="300"/><use href="#mono78" x="450"/><use href="#mono21" x="600"/><use href="#mono105" x="750"/><use href="#mono59" x="900"/><use href="#mono102" x="1050"/><use href="#mono79" x="1200"/></g>
<rect x="100" y="156" width="54" height="22" rx="11" fill="none" stroke="#1c2230"/>
<g fill="#8b93a7" transform="translate(109 171) scale(0.04)"><use href="#mono21" x="0"/><use href="#mono72" x="150"/><use href="#mono91" x="300"/><use href="#mono80" x="450"/><use href="#mono92" x="600"/><use href="#mono80" x="750"/></g>
<rect x="160" y="156" width="54" height="22" rx="11" fill="none" stroke="#1c2230"/>
<g fill="#8b93a7" transform="translate(169 171) scale(0.04)"><use href="#mono44" x="0"/><use href="#mono70" x="150"/><use href="#mono105" x="300"/><use href="#mono59" x="450"/><use href="#mono92" x="600"/><use href="#mono108" x="750"/></g>
<rect x="220" y="156" width="54" height="22" rx="11" fill="none" stroke="#1c2230"/>
<g fill="#8b93a7" transform="translate(229 171) scale(0.04)"><use href="#mono34" x="0"/><use href="#mono90" x="150"/><use href="#mono90" x="300"/><use href="#mono59" x="450"/><use href="#mono91" x="600"/><use href="#mono59" x="750"/></g>
<g fill="#c6ff3d" transform="translate(22 198) scale(0.088)"><use href="#displayB63" x="0"/><use href="#displayB62" x="138"/><use href="#displayB64" x="292"/><use href="#displayB95" x="442"/><use href="#displayB33" x="550"/></g>
<g fill="#8b93a7" transform="translate(94.4 198) scale(0.04)"><use href="#mono72" x="0"/><use href="#mono91" x="150"/><use href="#mono67" x="300"/><use href="#mono72" x="450"/><use href="#mono70" x="600"/><use href="#mono70" x="750"/><use href="#mono80" x="900"/><use href="#mono92" x="1050"/><use href="#mono78" x="1200"/><use href="#mono106" x="1350"/><use href="#mono149" x="1650"/><use href="#mono129" x="1950"/><use href="#mono59" x="2250"/><use href="#mono78" x="2400"/><use href="#mono72" x="2550"/><use href="#mono92" x="2700"/><use href="#mono108" x="2850"/><use href="#mono108" x="3150"/><use href="#mono94" x="3300"/><use href="#mono94" x="3450"/><use href="#mono90" x="3600"/><use href="#mono106" x="3750"/></g>
</svg>
